Crispy-parametric-WideThinMaxGrade.ufo
<glyph name="period" format="2">
  <advance width="314"/>
  <unicode hex="002E"/>
  <outline>
    <contour>
      <point x="142" y="0" type="line" identifier="1m237t4hyw"/>
      <point x="155" y="22" type="line" identifier="v7N4yg5XNk"/>
      <point x="155" y="93" type="line"/>
      <point x="53" y="93" type="line" identifier="zfocDyDTCM"/>
      <point x="40" y="70" type="line"/>
      <point x="40" y="0" type="line" identifier="S4rO5KuHiL"/>
    </contour>
  </outline>
</glyph>
<glyph name="three" format="2">
  <advance width="4118"/>
  <unicode hex="0033"/>
  <outline>
    <contour>
      <point x="129" y="0" type="line" identifier="O9abUc1nmN"/>
      <point x="3959" y="0" type="line" identifier="kMJYMTfXCq"/>
      <point x="3959" y="815" type="line" identifier="su2XmdS8e8"/>
      <point x="2778" y="816" type="line" identifier="JQaOzDQqlF"/>
      <point x="2768" y="798" type="line"/>
      <point x="3938" y="1119" type="line" identifier="S91TzLL02W"/>
      <point x="3938" y="1600" type="line" identifier="xg8x2Ki40p"/>
      <point x="134" y="1600" type="line" identifier="pE1XSRiy68"/>
      <point x="134" y="1492" type="line" identifier="5lNstGRcSF"/>
      <point x="236" y="1492" type="line" identifier="AcE5xKDZfE"/>
      <point x="236" y="1521" type="line" identifier="7ogBYufWpl"/>
      <point x="3812" y="1521" type="line" identifier="RHLvSX2Jv6"/>
      <point x="3812" y="1137" type="line" identifier="YUjTrmoWd9"/>
      <point x="2690" y="841" type="line"/>
      <point x="2700" y="839" type="line" identifier="iic1IBkDqp"/>
      <point x="955" y="839" type="line" identifier="lRLJEhXMlO"/>
      <point x="955" y="761" type="line" identifier="8aKgEELrVU"/>
      <point x="3857" y="761" type="line" identifier="Dm8zjmbhNr"/>
      <point x="3857" y="79" type="line" identifier="xv9CFHiFgB"/>
      <point x="231" y="79" type="line" identifier="YajKQV3MHP"/>
      <point x="231" y="107" type="line" identifier="36SchVkwze"/>
      <point x="129" y="107" type="line" identifier="tVui9PiOjA"/>
    </contour>
  </outline>
</glyph>
<glyph name="four" format="2">
  <advance width="4092"/>
  <unicode hex="0034"/>
  <outline>
    <contour>
      <point x="3435" y="0" type="line"/>
      <point x="3537" y="0" type="line"/>
      <point x="3537" y="749" type="line"/>
      <point x="3963" y="749" type="line"/>
      <point x="3963" y="834" type="line"/>
      <point x="3537" y="834" type="line"/>
      <point x="3537" y="1600" type="line"/>
      <point x="3435" y="1600" type="line"/>
      <point x="3435" y="834" type="line"/>
      <point x="232" y="834" type="line"/>
      <point x="232" y="1114" type="line"/>
      <point x="722" y="1668" type="line"/>
      <point x="619" y="1668" type="line"/>
      <point x="129" y="1114" type="line"/>
      <point x="129" y="749" type="line"/>
      <point x="3435" y="749" type="line"/>
    </contour>
  </outline>
</glyph>
<glyph name="six" format="2">
  <advance width="4107"/>
  <unicode hex="0036"/>
  <outline>
    <contour>
      <point x="159" y="0" type="line" identifier="uiw6aBUf4P"/>
      <point x="3978" y="0" type="line" identifier="jtYkxiUX6G"/>
      <point x="3978" y="839" type="line" identifier="2G5L37c87I"/>
      <point x="262" y="839" type="line"/>
      <point x="262" y="1205" type="line"/>
      <point x="713" y="1521" type="line"/>
      <point x="3875" y="1521" type="line"/>
      <point x="3875" y="1211" type="line"/>
      <point x="3977" y="1211" type="line" identifier="Wuidbv6mUe"/>
      <point x="3977" y="1600" type="line" identifier="oGvEEuxnYv"/>
      <point x="658" y="1600" type="line" identifier="xR3pEHbMJx"/>
      <point x="159" y="1242" type="line" identifier="KnMArb0tv8"/>
    </contour>
    <contour>
      <point x="3876" y="761" type="line"/>
      <point x="3876" y="79" type="line"/>
      <point x="262" y="79" type="line"/>
      <point x="262" y="761" type="line"/>
    </contour>
  </outline>
</glyph>
<glyph name="eight" format="2">
  <advance width="4169"/>
  <unicode hex="0038"/>
  <outline>
    <contour>
      <point x="3527" y="761" type="line"/>
      <point x="3907" y="493" type="line"/>
      <point x="3907" y="79" type="line"/>
      <point x="262" y="79" type="line"/>
      <point x="262" y="490" type="line"/>
      <point x="642" y="761" type="line"/>
    </contour>
    <contour>
      <point x="3630" y="799" type="line"/>
      <point x="3630" y="801" type="line"/>
      <point x="4007" y="1060" type="line"/>
      <point x="4007" y="1600" type="line"/>
      <point x="162" y="1600" type="line"/>
      <point x="162" y="1060" type="line"/>
      <point x="538" y="801" type="line"/>
      <point x="538" y="799" type="line"/>
      <point x="159" y="527" type="line"/>
      <point x="159" y="0" type="line"/>
      <point x="4010" y="0" type="line"/>
      <point x="4010" y="527" type="line"/>
    </contour>
    <contour>
      <point x="642" y="839" type="line"/>
      <point x="265" y="1096" type="line"/>
      <point x="265" y="1521" type="line"/>
      <point x="3904" y="1521" type="line"/>
      <point x="3903" y="1096" type="line"/>
      <point x="3527" y="839" type="line"/>
    </contour>
  </outline>
</glyph>
<glyph name="B" format="2">
  <advance width="4199"/>
  <unicode hex="0042"/>
  <outline>
    <contour>
      <point x="199" y="0" type="line" identifier="hvY9r8RmLr"/>
      <point x="4039" y="0" type="line" identifier="9QFpw7nfq7"/>
      <point x="4039" y="530" type="line" identifier="543PerILpr"/>
      <point x="3671" y="799" type="line" identifier="zhomauHW30"/>
      <point x="3671" y="801" type="line" identifier="870ZhtaozS"/>
      <point x="3949" y="1063" type="line" identifier="eGKH52Jgnk"/>
      <point x="3949" y="1600" type="line" identifier="FaP204GrdB"/>
      <point x="199" y="1600" type="line" identifier="JEev70GAj6"/>
    </contour>
    <contour>
      <point x="301" y="839" type="line" identifier="By7dfMihfe"/>
      <point x="301" y="1521" type="line" identifier="1p5hKrurVy"/>
      <point x="3847" y="1521" type="line" identifier="Qby8aMtF2X"/>
      <point x="3847" y="1088" type="line" identifier="9lW01gQyU2"/>
      <point x="3591" y="839" type="line" identifier="xpxyvIzPoc"/>
    </contour>
    <contour>
      <point x="301" y="79" type="line" identifier="jaMSiLrCua"/>
      <point x="301" y="761" type="line" identifier="XSrxNd2axx"/>
      <point x="3568" y="761" type="line" identifier="VyYlzRh5nq"/>
      <point x="3937" y="496" type="line" identifier="lsRGatjQja"/>
      <point x="3937" y="79" type="line" identifier="xhlDJ3CjD5"/>
    </contour>
  </outline>
</glyph>
<glyph name="R" format="2">
  <advance width="4259"/>
  <unicode hex="0052"/>
  <outline>
    <contour>
      <point x="302" y="723" type="line"/>
      <point x="301" y="1515" type="line"/>
      <point x="3994" y="1515" type="line"/>
      <point x="3994" y="962" type="line"/>
      <point x="3668" y="724" type="line"/>
    </contour>
    <contour>
      <point x="4099" y="0" type="line"/>
      <point x="3732" y="670" type="line"/>
      <point x="4096" y="944" type="line"/>
      <point x="4096" y="1600" type="line"/>
      <point x="199" y="1600" type="line"/>
      <point x="199" y="0" type="line"/>
      <point x="301" y="0" type="line"/>
      <point x="301" y="638" type="line"/>
      <point x="3650" y="638" type="line"/>
      <point x="3997" y="0" type="line"/>
    </contour>
  </outline>
</glyph>
<glyph name="S" format="2">
  <advance width="3977"/>
  <unicode hex="0053"/>
  <outline>
    <contour>
      <point x="131" y="0" type="line" identifier="09VlJ0BjUX"/>
      <point x="3847" y="0" type="line" identifier="EagWihqFM8"/>
      <point x="3847" y="839" type="line" identifier="KfNuQA7eZe"/>
      <point x="233" y="839" type="line" identifier="At364YZFEy"/>
      <point x="233" y="1111" type="line"/>
      <point x="603" y="1521" type="line"/>
      <point x="3745" y="1521" type="line" identifier="3ZUkG35meB"/>
      <point x="3745" y="1148" type="line" identifier="DTOJhFIl15"/>
      <point x="3847" y="1148" type="line" identifier="9KDcrfQ5Ui"/>
      <point x="3847" y="1600" type="line" identifier="SaF9ojRFrW"/>
      <point x="565" y="1600" type="line"/>
      <point x="130" y="1111" type="line"/>
      <point x="130" y="761" type="line" identifier="3sQ8t8BZ6b"/>
      <point x="3745" y="761" type="line" identifier="yiV6OCBLHg"/>
      <point x="3745" y="79" type="line" identifier="9kdl9SYsn8"/>
      <point x="233" y="79" type="line" identifier="yZDWuX8LLe"/>
      <point x="233" y="486" type="line" identifier="jYb9001DTm"/>
      <point x="131" y="486" type="line" identifier="ho4DrS0rdW"/>
    </contour>
  </outline>
</glyph>
<glyph name="W" format="2">
  <advance width="5245"/>
  <unicode hex="0057"/>
  <outline>
    <contour>
      <point x="302" y="1600" type="line" smooth="yes" identifier="12Pyby1xY2"/>
      <point x="199" y="1600" type="line" smooth="yes" identifier="5LJg4ajoG6"/>
      <point x="199" y="0" type="line" smooth="yes" identifier="ZqTZqAY3uY"/>
      <point x="2377" y="0" type="line" smooth="yes" identifier="rCeQLyjlsN"/>
      <point x="2611" y="287" type="line"/>
      <point x="2613" y="287" type="line"/>
      <point x="2613" y="0" type="line" smooth="yes" identifier="Pkl7cZ37MU"/>
      <point x="4579" y="0" type="line" smooth="yes" identifier="R4lklfJsHA"/>
      <point x="5085" y="497" type="line" smooth="yes" identifier="7g7f8Wu7K4"/>
      <point x="5085" y="1600" type="line" smooth="yes" identifier="RTOJW56qXy"/>
      <point x="4983" y="1600" type="line" identifier="JfSFAkWGZC"/>
      <point x="4983" y="543" type="line" smooth="yes" identifier="WWvGwSpq0g"/>
      <point x="4512" y="85" type="line" smooth="yes" identifier="oee4nqI8Wl"/>
      <point x="2696" y="85" type="line" identifier="Ljn2lpvpG8"/>
      <point x="2696" y="370" type="line"/>
      <point x="2696" y="1510" type="line" smooth="yes"/>
      <point x="2594" y="1510" type="line"/>
      <point x="2594" y="491" type="line"/>
      <point x="2594" y="383" type="line"/>
      <point x="2349" y="85" type="line" identifier="GlWB6PG54Z"/>
      <point x="302" y="85" type="line" identifier="iqeTRv7HXg"/>
    </contour>
  </outline>
</glyph>
<glyph name="X" format="2">
  <advance width="4163"/>
  <unicode hex="0058"/>
  <outline>
    <contour>
      <point x="3516" y="754" type="line"/>
      <point x="3901" y="476" type="line"/>
      <point x="3901" y="0" type="line"/>
      <point x="4004" y="0" type="line"/>
      <point x="4004" y="518" type="line"/>
      <point x="3609" y="795" type="line"/>
      <point x="3609" y="797" type="line"/>
      <point x="4001" y="1054" type="line"/>
      <point x="4001" y="1600" type="line"/>
      <point x="3898" y="1600" type="line"/>
      <point x="3898" y="1091" type="line"/>
      <point x="3531" y="839" type="line"/>
      <point x="632" y="839" type="line"/>
      <point x="265" y="1091" type="line"/>
      <point x="265" y="1600" type="line"/>
      <point x="162" y="1600" type="line"/>
      <point x="162" y="1054" type="line"/>
      <point x="554" y="797" type="line"/>
      <point x="554" y="795" type="line"/>
      <point x="159" y="518" type="line"/>
      <point x="159" y="0" type="line"/>
      <point x="262" y="0" type="line"/>
      <point x="262" y="476" type="line"/>
      <point x="647" y="754" type="line"/>
    </contour>
  </outline>
</glyph>
<glyph name="Z" format="2">
  <advance width="4061"/>
  <unicode hex="005A"/>
  <outline>
    <contour>
      <point x="129" y="0" type="line"/>
      <point x="3931" y="0" type="line" identifier="pzdvPTirLJ"/>
      <point x="3931" y="591" type="line" identifier="91SxUS0iwG"/>
      <point x="3829" y="591" type="line"/>
      <point x="3829" y="79" type="line"/>
      <point x="232" y="79" type="line"/>
      <point x="232" y="434" type="line"/>
      <point x="3923" y="1302" type="line" identifier="yyb1NCCI5w"/>
      <point x="3923" y="1600" type="line" identifier="5FogYRSgkk"/>
      <point x="134" y="1600" type="line" identifier="svlFvrau4c"/>
      <point x="134" y="1058" type="line" identifier="LQ9fBsTy9K"/>
      <point x="237" y="1058" type="line"/>
      <point x="237" y="1521" type="line"/>
      <point x="3821" y="1521" type="line"/>
      <point x="3821" y="1356" type="line"/>
      <point x="130" y="491" type="line" identifier="teVKnpBcVb"/>
    </contour>
  </outline>
</glyph>
<glyph name="B.narrow" format="2">
  <advance width="4199"/>
  <outline>
    <contour>
      <point x="199" y="0" type="line" identifier="hvY9r8RmLr"/>
      <point x="4039" y="0" type="line" identifier="9QFpw7nfq7"/>
      <point x="4039" y="553" type="line" identifier="543PerILpr"/>
      <point x="3698" y="855" type="line" identifier="870ZhtaozS"/>
      <point x="3949" y="870" type="line" identifier="eGKH52Jgnk"/>
      <point x="3949" y="1600" type="line" identifier="FaP204GrdB"/>
      <point x="199" y="1600" type="line" identifier="JEev70GAj6"/>
    </contour>
    <contour>
      <point x="301" y="778" type="line" identifier="By7dfMihfe"/>
      <point x="301" y="1521" type="line" identifier="1p5hKrurVy"/>
      <point x="3847" y="1521" type="line" identifier="Qby8aMtF2X"/>
      <point x="3847" y="927" type="line" identifier="9lW01gQyU2"/>
    </contour>
    <contour>
      <point x="301" y="79" type="line" identifier="jaMSiLrCua"/>
      <point x="301" y="706" type="line" identifier="XSrxNd2axx"/>
      <point x="3551" y="848" type="line" identifier="VyYlzRh5nq"/>
      <point x="3937" y="519" type="line" identifier="lsRGatjQja"/>
      <point x="3937" y="79" type="line" identifier="xhlDJ3CjD5"/>
    </contour>
  </outline>
</glyph>
<glyph name="G.wide" format="2">
  <advance width="4074"/>
  <outline>
    <contour>
      <point x="159" y="0" type="line" identifier="7lPhzTnk2Z"/>
      <point x="3972" y="0" type="line" identifier="qJVLZGnkwh"/>
      <point x="3972" y="839" type="line" identifier="uek1NNj7De"/>
      <point x="2670" y="839" type="line" identifier="qcvimxjndX"/>
      <point x="2670" y="761" type="line" identifier="EARaY3Su65"/>
      <point x="3870" y="761" type="line" identifier="4m6dHLVhZq"/>
      <point x="3870" y="79" type="line" identifier="Y750RHTvDj"/>
      <point x="262" y="79" type="line" identifier="L2LsGnXiZ2"/>
      <point x="262" y="1075" type="line" identifier="sUWsr03vF4"/>
      <point x="721" y="1521" type="line" identifier="dbOUe6OhxL"/>
      <point x="3971" y="1521" type="line" identifier="5BjRbcud80"/>
      <point x="3971" y="1600" type="line" identifier="9eJelv8BOw"/>
      <point x="665" y="1600" type="line" identifier="lfZev3ICaC"/>
      <point x="159" y="1106" type="line" identifier="V1EWIdPahq"/>
    </contour>
  </outline>
</glyph>
<glyph name="K.alt" format="2">
  <advance width="4041"/>
  <outline>
    <contour>
      <point x="202" y="0" type="line" identifier="wmNm7XZsaF"/>
      <point x="202" y="743" type="line" identifier="O22liaP9Qk"/>
      <point x="3441" y="743" type="line" identifier="ELFBWIb1vd"/>
      <point x="3813" y="742" type="line" identifier="DzXo67YEfw"/>
      <point x="3813" y="0" type="line" identifier="aKpYWD78l2"/>
      <point x="3915" y="0" type="line" identifier="ChS7KlqGi6"/>
      <point x="3915" y="827" type="line" identifier="sWLgkU8Vey"/>
      <point x="3535" y="828" type="line" identifier="Of0iQc0wBG"/>
      <point x="3781" y="1600" type="line" identifier="dMJ1ywOKQQ"/>
      <point x="3676" y="1600" type="line" identifier="08OWjR2YBJ"/>
      <point x="3432" y="828" type="line" identifier="g4YLdZEoM3"/>
      <point x="202" y="828" type="line" identifier="uZuki3Isec"/>
      <point x="202" y="1600" type="line" identifier="nRfcNgqJ4H"/>
      <point x="100" y="1600" type="line" identifier="3XJlWt89ad"/>
      <point x="100" y="0" type="line" identifier="wdbO8kCovY"/>
    </contour>
  </outline>
</glyph>
<glyph name="K.narrow" format="2">
  <advance width="4191"/>
  <outline>
    <contour>
      <point x="302" y="0" type="line"/>
      <point x="302" y="640" type="line"/>
      <point x="3575" y="789" type="line"/>
      <point x="3929" y="0" type="line"/>
      <point x="4032" y="0" type="line"/>
      <point x="3661" y="817" type="line"/>
      <point x="3966" y="831" type="line"/>
      <point x="3966" y="1600" type="line"/>
      <point x="3864" y="1600" type="line"/>
      <point x="3864" y="887" type="line"/>
      <point x="302" y="725" type="line"/>
      <point x="302" y="1600" type="line"/>
      <point x="199" y="1600" type="line"/>
      <point x="199" y="0" type="line"/>
    </contour>
  </outline>
</glyph>
<glyph name="N.narrow" format="2">
  <advance width="3183"/>
  <outline>
    <contour>
      <point x="199" y="15" type="line" smooth="yes"/>
      <point x="301" y="15" type="line"/>
      <point x="301" y="1216" type="line"/>
      <point x="546" y="1515" type="line"/>
      <point x="2882" y="1515" type="line"/>
      <point x="2882" y="0" type="line" smooth="yes"/>
      <point x="2984" y="0" type="line" smooth="yes"/>
      <point x="2984" y="1600" type="line" smooth="yes"/>
      <point x="525" y="1600" type="line" smooth="yes"/>
      <point x="307" y="1330" type="line"/>
      <point x="283" y="1330" type="line"/>
      <point x="283" y="1600" type="line"/>
      <point x="199" y="1600" type="line"/>
    </contour>
  </outline>
</glyph>
<glyph name="N.wide" format="2">
  <advance width="4230"/>
  <outline>
    <contour>
      <point x="269" y="0" type="line" identifier="CkwYPPvJLv"/>
      <point x="371" y="0" type="line" identifier="oHTJsN7drZ"/>
      <point x="371" y="1515" type="line" identifier="wfBbYd10Pm"/>
      <point x="830" y="1515" type="line" identifier="MEnBDHq6zU"/>
      <point x="3437" y="0" type="line" identifier="3Nbopwznvn"/>
      <point x="4031" y="0" type="line" identifier="uKfuudIUvA"/>
      <point x="4031" y="1600" type="line" identifier="XRdLFXiM4t"/>
      <point x="3929" y="1600" type="line" identifier="MUSJPjCIXg"/>
      <point x="3929" y="85" type="line" identifier="VILP20cFmq"/>
      <point x="3468" y="85" type="line" identifier="z5b04GDwRN"/>
      <point x="860" y="1600" type="line" identifier="LL64NQ6WBE"/>
      <point x="269" y="1600" type="line" identifier="dzUaaP1sjt"/>
    </contour>
  </outline>
</glyph>
<glyph name="P.wide" format="2">
  <advance width="3925"/>
  <outline>
    <contour>
      <point x="199" y="0" type="line" identifier="EG08jqU5fb"/>
      <point x="301" y="0" type="line" identifier="osRzIFK2Cu"/>
      <point x="301" y="567" type="line" identifier="hIFVovVRwe"/>
      <point x="3795" y="567" type="line" identifier="Tt6D8zYZmU"/>
      <point x="3795" y="1600" type="line" identifier="6xW04auDFu"/>
      <point x="199" y="1600" type="line" identifier="eETO5GBD5v"/>
    </contour>
    <contour>
      <point x="301" y="654" type="line" identifier="PIBVN1PGv1"/>
      <point x="301" y="1515" type="line" identifier="IZIZQr2gYJ"/>
      <point x="3693" y="1515" type="line" identifier="2c4LCF1E1R"/>
      <point x="3693" y="654" type="line" identifier="1WCnzth1GX"/>
    </contour>
  </outline>
</glyph>
<glyph name="R.alt" format="2">
  <advance width="4041"/>
  <outline>
    <contour>
      <point x="182" y="724" type="line"/>
      <point x="172" y="1505" type="line"/>
      <point x="3865" y="1505" type="line"/>
      <point x="3875" y="724" type="line"/>
    </contour>
    <contour>
      <point x="3970" y="0" type="line"/>
      <point x="3581" y="671" type="line"/>
      <point x="3977" y="672" type="line"/>
      <point x="3967" y="1600" type="line"/>
      <point x="70" y="1600" type="line"/>
      <point x="70" y="0" type="line"/>
      <point x="172" y="0" type="line"/>
      <point x="182" y="644" type="line"/>
      <point x="3495" y="644" type="line"/>
      <point x="3868" y="0" type="line"/>
    </contour>
  </outline>
</glyph>
<glyph name="S.wide" format="2">
  <advance width="3759"/>
  <outline>
    <contour>
      <point x="131" y="0" type="line" identifier="09VlJ0BjUX"/>
      <point x="3629" y="0" type="line" identifier="EagWihqFM8"/>
      <point x="3629" y="839" type="line" identifier="KfNuQA7eZe"/>
      <point x="232" y="839" type="line" identifier="At364YZFEy"/>
      <point x="232" y="1176" type="line"/>
      <point x="527" y="1521" type="line"/>
      <point x="3629" y="1521" type="line" identifier="3ZUkG35meB"/>
      <point x="3629" y="1600" type="line" identifier="SaF9ojRFrW"/>
      <point x="490" y="1600" type="line"/>
      <point x="130" y="1176" type="line"/>
      <point x="130" y="761" type="line" identifier="3sQ8t8BZ6b"/>
      <point x="3527" y="761" type="line" identifier="yiV6OCBLHg"/>
      <point x="3527" y="79" type="line" identifier="9kdl9SYsn8"/>
      <point x="131" y="79" type="line" identifier="yZDWuX8LLe"/>
    </contour>
  </outline>
</glyph>
<glyph name="Z.wide" format="2">
  <advance width="4086"/>
  <outline>
    <contour>
      <point x="142" y="0" type="line"/>
      <point x="3957" y="0" type="line" identifier="pzdvPTirLJ"/>
      <point x="3957" y="79" type="line"/>
      <point x="256" y="79" type="line"/>
      <point x="256" y="447" type="line"/>
      <point x="3950" y="1282" type="line" identifier="yyb1NCCI5w"/>
      <point x="3950" y="1600" type="line" identifier="5FogYRSgkk"/>
      <point x="132" y="1600" type="line" identifier="svlFvrau4c"/>
      <point x="132" y="1521" type="line"/>
      <point x="3823" y="1521" type="line"/>
      <point x="3823" y="1336" type="line"/>
      <point x="142" y="501" type="line" identifier="teVKnpBcVb"/>
    </contour>
  </outline>
</glyph>
<glyph name="five.wide" format="2">
  <advance width="4091"/>
  <outline>
    <contour>
      <point x="131" y="0" type="line" identifier="09VlJ0BjUX"/>
      <point x="3942" y="0" type="line" identifier="EagWihqFM8"/>
      <point x="3942" y="827" type="line" identifier="KfNuQA7eZe"/>
      <point x="231" y="827" type="line" identifier="At364YZFEy"/>
      <point x="231" y="1515" type="line" identifier="BcuLfvaQKC"/>
      <point x="3942" y="1515" type="line" identifier="3ZUkG35meB"/>
      <point x="3942" y="1600" type="line" identifier="SaF9ojRFrW"/>
      <point x="129" y="1600" type="line" identifier="F4sQEYelA8"/>
      <point x="129" y="773" type="line" identifier="3sQ8t8BZ6b"/>
      <point x="3841" y="773" type="line" identifier="yiV6OCBLHg"/>
      <point x="3841" y="85" type="line" identifier="9kdl9SYsn8"/>
      <point x="131" y="85" type="line" identifier="yZDWuX8LLe"/>
    </contour>
  </outline>
</glyph>
<glyph name="one.narrow" format="2">
  <advance width="2284"/>
  <outline>
    <contour>
      <point x="2085" y="0" type="line" identifier="5nmxQXofSG"/>
      <point x="2085" y="1600" type="line" identifier="4rjIeWbSbx"/>
      <point x="129" y="1600" type="line"/>
      <point x="129" y="1515" type="line"/>
      <point x="1982" y="1515" type="line"/>
      <point x="1982" y="0" type="line"/>
    </contour>
  </outline>
</glyph>
<glyph name="six.wide" format="2">
  <advance width="4040"/>
  <outline>
    <contour>
      <point x="101" y="0" type="line" identifier="uiw6aBUf4P"/>
      <point x="3919" y="0" type="line" identifier="jtYkxiUX6G"/>
      <point x="3919" y="839" type="line" identifier="2G5L37c87I"/>
      <point x="203" y="839" type="line"/>
      <point x="203" y="1205" type="line"/>
      <point x="654" y="1521" type="line"/>
      <point x="3918" y="1521" type="line"/>
      <point x="3918" y="1600" type="line" identifier="oGvEEuxnYv"/>
      <point x="599" y="1600" type="line" identifier="xR3pEHbMJx"/>
      <point x="101" y="1242" type="line" identifier="KnMArb0tv8"/>
    </contour>
    <contour>
      <point x="3817" y="761" type="line"/>
      <point x="3817" y="79" type="line"/>
      <point x="203" y="79" type="line"/>
      <point x="203" y="761" type="line"/>
    </contour>
  </outline>
</glyph>
<glyph name="three.wide" format="2">
  <advance width="4147"/>
  <outline>
    <contour>
      <point x="129" y="0" type="line" identifier="O9abUc1nmN"/>
      <point x="3948" y="0" type="line" identifier="kMJYMTfXCq"/>
      <point x="3948" y="815" type="line" identifier="su2XmdS8e8"/>
      <point x="2767" y="815" type="line" identifier="JQaOzDQqlF"/>
      <point x="2767" y="798" type="line"/>
      <point x="3940" y="1105" type="line" identifier="S91TzLL02W"/>
      <point x="3940" y="1600" type="line" identifier="xg8x2Ki40p"/>
      <point x="134" y="1600" type="line" identifier="pE1XSRiy68"/>
      <point x="134" y="1515" type="line" identifier="7ogBYufWpl"/>
      <point x="3814" y="1515" type="line" identifier="RHLvSX2Jv6"/>
      <point x="3814" y="1113" type="line" identifier="YUjTrmoWd9"/>
      <point x="2689" y="828" type="line"/>
      <point x="2689" y="827" type="line" identifier="iic1IBkDqp"/>
      <point x="862" y="827" type="line" identifier="lRLJEhXMlO"/>
      <point x="862" y="773" type="line" identifier="8aKgEELrVU"/>
      <point x="3846" y="773" type="line" identifier="Dm8zjmbhNr"/>
      <point x="3846" y="85" type="line" identifier="xv9CFHiFgB"/>
      <point x="129" y="85" type="line" identifier="YajKQV3MHP"/>
    </contour>
  </outline>
</glyph>
